<svg width="120" height="120" viewBox="0 0 120 120" fill="none" xmlns="http://www.w3.org/2000/svg">
<path d="M120 60C120 26.8682 93.1318 0 60 0C26.8682 0 0 26.8682 0 60C0 93.1318 26.8682 120 60 120C93.1318 120 120 93.1318 120 60Z" fill="#A3D5E0"/>
<path d="M69.4075 68.2227H50.5925C53.5188 77.0739 50.8344 81.1126 50.8344 81.1126L57.3398 82.5878H62.6602L69.1657 81.1126C69.1657 81.1126 66.4813 77.0739 69.4075 68.2227Z" fill="white"/>
<path d="M60.0242 94.3413C70.8827 94.3413 69.1656 81.1128 69.1656 81.1128C69.1656 81.1128 67.0133 85.2966 59.9516 85.2966C52.8899 85.2966 50.8827 81.1128 50.8827 81.1128C50.8827 81.1128 49.1656 94.3413 60.0242 94.3413Z" fill="white"/>
<path d="M59.9275 80.6289C41.2576 80.6289 26.2878 85.9735 24.5224 92.5515C23.7243 95.5019 22.8295 101.064 22.0798 106.457C32.4063 114.897 45.6348 119.976 60.0242 119.976C74.4136 119.976 87.6179 114.897 97.9686 106.457C97.1947 101.064 96.2999 95.4778 95.526 92.5515C93.7122 85.9735 78.5732 80.6289 59.9275 80.6289Z" fill="white"/>
<path d="M84.4256 98.6942H35.5743L38.6457 37.0255L81.0641 32.0679L84.4256 98.6942Z" fill="#403C3A"/>
<path d="M70.399 78.5732H49.601V84.6192H70.399V78.5732Z" fill="#DEE0E2"/>
<path d="M59.9275 80.6289C41.2576 80.6289 26.2878 85.9735 24.5224 92.5515C23.7243 95.502 22.8295 101.064 22.0798 106.457C32.4063 114.897 45.6348 119.976 60.0242 119.976C74.4136 119.976 87.6179 114.897 97.9686 106.457C97.1947 101.064 96.2999 95.4778 95.526 92.5515C93.7122 85.9735 78.5732 80.6289 59.9275 80.6289Z" fill="#800000"/>
<path d="M71.0762 81.3058C67.5695 80.8705 63.8211 80.6528 59.9275 80.6528C56.0822 80.6528 52.3821 80.8705 48.9238 81.3058L60 103.313L71.0762 81.3058Z" fill="#F3FAFF"/>
<path d="M40.653 86.3846L49.601 78.5732L57.3398 94.0267C57.3398 94.0267 51.2455 95.7437 51.1729 95.6712L40.653 86.3846Z" fill="#F3FAFF"/>
<path d="M79.347 86.3846L70.399 78.5732L62.6602 94.0267C62.6602 94.0267 68.7545 95.7437 68.827 95.6712L79.347 86.3846Z" fill="#F3FAFF"/>
<path d="M60 99.6618L50.8585 81.0886C50.8585 81.0886 53.0834 78.0898 59.9033 78.0898C66.7231 78.0898 69.1173 81.1128 69.1173 81.1128L60 99.6618Z" fill="white"/>
<path d="M69.4075 68.2227H50.5925C53.5188 77.0739 50.8344 81.1126 50.8344 81.1126C50.8344 81.1126 54.8005 82.5878 60 82.5878C65.1995 82.5878 69.1657 81.1126 69.1657 81.1126C69.1657 81.1126 66.4813 77.0739 69.4075 68.2227Z" fill="white"/>
<path d="M79.2986 42.3703C79.2986 20.0244 70.665 14.8975 60 14.8975C49.3591 14.8975 40.7013 20.0244 40.7013 42.3703C40.7013 49.9398 42.0556 55.8648 44.087 60.4355C48.5368 70.496 56.2515 74.0027 60 74.0027C63.7485 74.0027 71.4389 70.496 75.9129 60.4355C77.9444 55.8648 79.2986 49.9398 79.2986 42.3703Z" fill="#F4B382"/>
<path d="M69.8187 17.1945C65.9009 13.0591 57.3156 14.1958 57.3156 14.1958C48.8029 15.3566 38.9601 32.0676 38.9601 32.0676L38.6458 37.0253C38.6458 40.4593 40.4837 44.7157 42.2733 48.9479C42.2733 48.9479 41.9106 34.9938 50.2782 31.2695C58.6458 27.5452 72.5514 28.44 71.9468 24.1595C71.9227 23.9418 72.3096 19.8548 69.8187 17.1945Z" fill="#403C3A"/>
<path d="M65.2479 14.5343C67.8114 13.3493 73.8816 16.3723 76.9287 20.8946C78.549 23.2888 80.4354 26.9406 81.0641 32.0675C81.0641 32.0675 81.1367 42.2973 78.5974 48.6334C78.5974 48.6334 71.2939 27.521 63.3374 18.5004C63.3616 18.3795 63.6034 15.3082 65.2479 14.5343Z" fill="#403C3A"/>
<path d="M38.8634 50.2297C39.9033 56.324 41.185 56.5901 43.0471 56.2757L41.0883 43.0229C39.2261 43.3615 37.8234 44.1596 38.8634 50.2297Z" fill="#F4B382"/>
<path d="M78.9601 43.0479L77.0012 56.3006C78.8392 56.615 80.1451 56.3247 81.185 50.2546C82.2007 44.1603 80.7981 43.3622 78.9601 43.0479Z" fill="#F4B382"/>
<path d="M66.4571 63.7967C66.4571 63.7967 63.023 66.1183 60 66.1183C56.9771 66.1183 53.543 63.7967 53.543 63.7967C53.543 63.4581 56.2757 62.5149 57.4366 62.3456C58.1621 62.2247 60 62.9502 60 62.9502C60 62.9502 61.8138 62.2489 62.5152 62.3456C63.7002 62.5149 66.4571 63.7967 66.4571 63.7967Z" fill="#CC785E"/>
<path d="M66.4571 63.7969C66.4571 63.7969 63.023 67.0617 60 67.0617C56.9771 67.0617 53.543 63.7969 53.543 63.7969C53.543 63.7969 55.1149 64.1596 58.283 63.9662C58.815 63.942 59.5164 64.3531 59.9759 64.3531C60.387 64.3531 60.9916 63.9178 61.4511 63.942C64.7884 64.1354 66.4571 63.7969 66.4571 63.7969Z" fill="#C16952"/>
<path d="M81.0399 22.6362H38.9359V32.0679H81.0399V22.6362Z" fill="#242D2B"/>
<path d="M62.37 30.3992C61.0641 30.7861 58.9359 30.7861 57.63 30.3992L28.7061 21.5479C28.029 21.3544 27.7146 21.0642 27.7146 20.7982V19.8066H92.2853C92.2853 19.8066 92.2853 20.7982 92.2853 20.8224C92.2853 21.0884 91.9468 21.3544 91.2938 21.5479L62.37 30.3992Z" fill="#181E1D"/>
<path d="M62.37 29.3833C61.064 29.7702 58.9359 29.7702 57.6299 29.3833L28.7061 20.532C27.4002 20.1209 27.4002 19.4921 28.7061 19.081L57.6299 10.2297C58.9359 9.81861 61.064 9.81861 62.37 10.2297L91.2938 19.081C92.5997 19.4921 92.5997 20.1209 91.2938 20.532L62.37 29.3833Z" fill="#2A3633"/>
<path d="M78.3071 23.9419C78.0894 23.9419 77.9202 24.1112 77.9202 24.3288V40.2418C77.9202 40.4594 78.0894 40.6287 78.3071 40.6287C78.5248 40.6287 78.6941 40.4594 78.6941 40.2418V24.3288C78.6941 24.1112 78.5248 23.9419 78.3071 23.9419Z" fill="#800000"/>
<path d="M78.4038 23.9659L61.983 18.839C61.7654 18.7664 61.5477 18.8873 61.4994 19.105C61.4268 19.3226 61.5477 19.5403 61.7654 19.5887L78.1862 24.7156C78.4038 24.7882 78.6215 24.6673 78.6698 24.4496C78.7424 24.232 78.6215 24.0143 78.4038 23.9659Z" fill="#800000"/>
<path d="M79.3711 32.7207C79.3711 33.3978 78.8875 33.954 78.2829 33.954C77.6783 33.954 77.1946 33.3978 77.1946 32.7207C77.1946 32.0435 77.6783 31.4873 78.2829 31.4873C78.8875 31.4873 79.3711 32.0435 79.3711 32.7207Z" fill="#800000"/>
<path d="M77.9202 33.7603C77.9202 33.7603 76.8319 35.0178 76.8319 35.7675C76.8319 36.0819 76.8319 37.8473 76.8077 39.1049C76.8077 39.8787 76.2273 40.4833 76.2273 40.4833C76.2273 40.9186 80.3143 40.9186 80.3143 40.4833C80.3143 40.4833 79.7339 39.9029 79.7339 39.1532C79.7339 37.8957 79.7098 36.1786 79.7098 35.8159C79.7098 34.9936 78.6215 33.7603 78.6215 33.7603H77.9202Z" fill="#800000"/>
<path d="M62.1282 18.6455C62.1282 19.3468 61.2092 19.9031 60.0726 19.9031C58.936 19.9031 58.017 19.3227 58.017 18.6455C58.017 17.9442 58.936 17.3638 60.0726 17.3638C61.2092 17.3638 62.1282 17.9442 62.1282 18.6455Z" fill="#181E1D"/>
</svg>
